<svg width="50" height="50" viewBox="0 0 50 50" fill="none" xmlns="http://www.w3.org/2000/svg">
<path d="M10.4167 4.16663H14.5833V10.4166H10.4167V4.16663ZM18.75 4.16663H22.9167V10.4166H18.75V4.16663ZM27.0833 4.16663H31.25V10.4166H27.0833V4.16663ZM39.5833 18.75H35.4167V14.5833H6.25V37.5C6.25 40.9458 9.05417 43.75 12.5 43.75H29.1667C32.6125 43.75 35.4167 40.9458 35.4167 37.5H39.5833C41.8812 37.5 43.75 35.6312 43.75 33.3333V22.9166C43.75 20.6187 41.8812 18.75 39.5833 18.75ZM31.25 37.5C31.25 38.0525 31.0305 38.5824 30.6398 38.9731C30.2491 39.3638 29.7192 39.5833 29.1667 39.5833H12.5C11.9475 39.5833 11.4176 39.3638 11.0269 38.9731C10.6362 38.5824 10.4167 38.0525 10.4167 37.5V18.75H31.25V37.5ZM35.4167 33.3333V22.9166H39.5833L39.5875 33.3333H35.4167Z" fill="#28221E"/>
</svg>
