<svg width="50" height="50" viewBox="0 0 50 50" fill="none" xmlns="http://www.w3.org/2000/svg">
<path d="M1.22327 23.2929L4.88627 21.1352C5.63894 20.6836 6.56723 20.6836 7.29481 21.1352L10.9578 23.2929C11.9865 23.9201 11.9865 25.4254 10.9578 26.0276L7.29481 28.1852C6.93226 28.407 6.51552 28.5243 6.09054 28.5243C5.66556 28.5243 5.24882 28.407 4.88627 28.1852L1.22327 26.0276C0.19462 25.4004 0.19462 23.895 1.22327 23.2929ZM42.5951 20.3825L38.9321 22.5402C37.9034 23.1423 37.9034 24.6477 38.9321 25.2749L42.5951 27.4577C43.3477 27.9093 44.276 27.9093 45.0036 27.4577L48.6666 25.3C49.6953 24.6979 49.6953 23.1925 48.6666 22.5653L45.0036 20.4076C44.6455 20.1765 44.2292 20.0516 43.803 20.0471C43.3767 20.0427 42.958 20.159 42.5951 20.3825Z" fill="#28221E"/>
<path d="M23.8535 9.33555L20.1906 11.4932C19.1619 12.0953 19.1619 13.6007 20.1906 14.2279L23.8535 16.4107C24.6062 16.8623 25.5345 16.8623 26.2621 16.4107L29.9251 14.253C30.9537 13.6509 30.9537 12.1455 29.9251 11.5183L26.2621 9.36064C25.9039 9.12955 25.4877 9.00456 25.0614 9.00012C24.6352 8.99568 24.2165 9.11197 23.8535 9.33555Z" fill="#28221E"/>
<path d="M24.423 20.5002L20.76 22.6578C19.7313 23.26 19.7313 24.7653 20.76 25.3925L24.423 27.5753C25.1757 28.0269 26.104 28.0269 26.8315 27.5753L30.4945 25.4176C31.5232 24.8155 31.5232 23.3101 30.4945 22.6829L26.8315 20.5253C26.4734 20.2942 26.0571 20.1692 25.6309 20.1647C25.2047 20.1603 24.7859 20.2766 24.423 20.5002Z" fill="#28221E"/>
<path d="M24.423 32.8031L20.76 34.9607C19.7313 35.5628 19.7313 37.0682 20.76 37.6954L24.423 39.8782C25.1757 40.3298 26.104 40.3298 26.8315 39.8782L30.4945 37.7205C31.5232 37.1184 31.5232 35.613 30.4945 34.9858L26.8315 32.8281C26.4734 32.5971 26.0571 32.4721 25.6309 32.4676C25.2047 32.4632 24.7859 32.5795 24.423 32.8031Z" fill="#28221E"/>
<path d="M33.5881 15.2724L29.9251 17.43C28.8964 18.0322 28.8964 19.5375 29.9251 20.1647L33.5881 22.3475C34.3408 22.7991 35.2691 22.7991 35.9966 22.3475L39.6596 20.1898C40.6883 19.5877 40.6883 18.0824 39.6596 17.4551L35.9966 15.2975C35.6385 15.0664 35.2222 14.9414 34.796 14.937C34.3698 14.9325 33.951 15.0488 33.5881 15.2724Z" fill="#28221E"/>
<path d="M33.5881 25.9696L29.9251 28.1272C28.8964 28.7294 28.8964 30.2347 29.9251 30.8619L33.5881 33.0447C34.3408 33.4963 35.2691 33.4963 35.9966 33.0447L39.6596 30.887C40.6883 30.2849 40.6883 28.7795 39.6596 28.1523L35.9966 25.9947C35.6385 25.7636 35.2222 25.6386 34.796 25.6341C34.3698 25.6297 33.951 25.746 33.5881 25.9696Z" fill="#28221E"/>
<path d="M14.6884 26.644L11.0254 28.8017C9.99679 29.4038 9.99679 30.9091 11.0254 31.5364L14.6884 33.7191C15.4411 34.1707 16.3694 34.1707 17.097 33.7191L20.76 31.5615C21.7886 30.9593 21.7886 29.454 20.76 28.8268L17.097 26.6691C16.7388 26.438 16.3226 26.313 15.8963 26.3086C15.4701 26.3041 15.0513 26.4204 14.6884 26.644Z" fill="#28221E"/>
<path d="M14.119 14.5633L10.456 16.721C9.42736 17.3231 9.42736 18.8285 10.456 19.4557L14.119 21.6384C14.8717 22.09 15.8 22.09 16.5276 21.6384L20.1906 19.4808C21.2192 18.8786 21.2192 17.3733 20.1906 16.7461L16.5276 14.5884C16.1694 14.3573 15.7531 14.2323 15.3269 14.2279C14.9007 14.2235 14.4819 14.3398 14.119 14.5633Z" fill="#28221E"/>
</svg>
