<svg width="50" height="50" viewBox="0 0 50 50" fill="none" xmlns="http://www.w3.org/2000/svg">
<path fill-rule="evenodd" clip-rule="evenodd" d="M10.4167 10.4167C10.4167 8.20657 11.2947 6.08695 12.8575 4.52415C14.4203 2.96135 16.5399 2.08337 18.75 2.08337H31.25C33.4602 2.08337 35.5798 2.96135 37.1426 4.52415C38.7054 6.08695 39.5834 8.20657 39.5834 10.4167V43.75H31.55L33.0959 47.9167H28.9292L27.3834 43.75H23.2167L24.7625 47.9167H20.5959L19.05 43.75H10.4167V10.4167ZM18.75 6.25004H31.25C32.3551 6.25004 33.4149 6.68903 34.1963 7.47043C34.9777 8.25183 35.4167 9.31164 35.4167 10.4167V14.5834H14.5834V10.4167C14.5834 9.31164 15.0223 8.25183 15.8037 7.47043C16.5851 6.68903 17.645 6.25004 18.75 6.25004ZM14.5834 18.75H35.4167V39.5834H14.5834V18.75Z" fill="#28221E"/>
</svg>
