<svg width="414" height="682" viewBox="0 0 414 682" fill="none" xmlns="http://www.w3.org/2000/svg">
<g opacity="0.05" clip-path="url(#clip0_1_1400)">
<mask id="mask0_1_1400" style="mask-type:luminance" maskUnits="userSpaceOnUse" x="71" y="85" width="540" height="526">
<path d="M610.646 379.175L271.635 85.9989L71.8662 316.999L410.877 610.175L610.646 379.175Z" fill="white"/>
</mask>
<g mask="url(#mask0_1_1400)">
<path fill-rule="evenodd" clip-rule="evenodd" d="M288.466 118.613C285.32 124.02 283.609 129.052 282.84 133.894C282.438 136.473 282.31 138.983 282.45 141.498C282.734 146.507 284.136 151.424 286.167 156.512C288.894 163.327 292.771 170.411 297.067 178.21C297.678 179.357 298.302 180.489 298.936 181.602C300.831 183.241 302.743 184.922 304.69 186.639C304.824 186.754 304.846 186.959 304.728 187.103C304.623 187.232 304.408 187.266 304.271 187.147C302.981 186.185 301.703 185.24 300.457 184.281C308.973 199.122 318.373 212.672 328.352 225.599C327.807 224.721 327.258 223.841 326.75 222.936C324.666 219.232 322.838 215.316 321.221 211.271C318.994 205.64 317.215 199.745 315.723 193.779C314.668 189.507 313.764 185.207 313.042 180.904C312.13 175.513 311.457 170.162 310.973 164.922C310.116 164.706 309.287 164.395 308.527 163.99C306.506 162.927 305.03 161.212 304.645 159.01C304.369 157.308 304.506 155.903 304.946 154.601C305.212 153.833 305.57 153.119 306.011 152.409C306.25 151.864 306.572 151.338 307 150.804C307.219 150.528 307.444 150.283 307.667 150.071C307.879 149.788 308.081 149.531 308.306 149.286C308.74 148.823 309.252 148.454 309.716 148.264C313.325 146.682 317.121 148.469 319.203 151.36C320.003 152.458 320.523 153.718 320.708 154.996C322.192 158.74 321.255 163.039 316.926 164.776C316.137 165.057 315.187 165.233 314.204 165.255C315.074 170.363 316.058 175.578 317.243 180.807C318.658 187.039 320.31 193.296 322.306 199.379C324.075 204.833 326.119 210.152 328.415 215.25C329.979 218.725 331.61 222.124 333.476 225.327C333.906 226.105 334.337 226.877 334.781 227.64C334.339 225.575 333.976 223.518 333.721 221.429C333.451 219.08 333.326 216.724 333.29 214.358C333.196 209.668 333.444 204.967 334.053 200.325C334.455 197.214 335.038 194.14 335.673 191.137C336.315 188.234 337.107 185.433 338.038 182.687C338.967 179.945 340.031 177.253 341.201 174.561C341.479 173.863 341.776 173.189 342.103 172.534C342.443 171.864 342.81 171.217 343.204 170.592C343.383 170.308 343.537 169.73 343.687 169.487C343.976 169.046 344.312 169.057 344.871 169.234C345.237 168.926 344.859 169.317 345.296 169.103C345.454 169.02 345.365 169.07 345.529 169.118C345.894 169.181 346.043 169.716 346.248 170.172C346.77 171.375 346.966 173.441 347.131 174.235L349.329 186.944C350.498 193.961 351.665 200.917 351.879 207.892C351.946 210.252 351.872 212.622 351.73 214.987C351.572 217.338 351.364 219.686 350.899 222.084C349.856 227.906 346.685 233.418 344.931 239.184C344.708 239.896 344.56 240.613 344.353 241.306C344.309 241.48 344.249 241.681 344.188 241.874C350.137 250.039 356.568 257.908 362.434 265.968C371.215 275.743 380.215 285.548 389.351 295.664C403.192 310.993 414.428 328.212 423.268 346.632C421.674 340.398 420.045 334.253 418.457 328.398C415.644 317.53 412.572 306.653 408.965 295.965C407.983 293.093 406.956 290.243 405.922 287.386C403.715 281.301 400.733 275.55 398.531 269.475C394.8 269.674 392.02 266.551 391.124 262.85C390.125 258.621 391.605 254.08 396.027 253.481C399.691 252.912 402.785 255.588 403.961 258.82C404.302 259.733 404.488 260.672 404.501 261.588C404.698 262.882 404.502 264.27 403.969 265.517C403.405 266.839 402.438 267.965 401.213 268.681C404.594 275.031 407.59 281.573 410.255 288.267C415.308 300.951 419.191 314.12 422.868 327.197C423.921 331.194 425.116 335.28 426.267 339.448L426.243 338.869C426.123 336.085 426 333.304 425.912 330.514C425.836 328.426 425.783 326.326 425.774 324.229C425.774 322.799 425.785 321.378 425.818 319.971C425.848 319.098 425.888 318.229 425.916 317.381C425.995 315.767 426.069 314.181 426.196 312.582C426.303 311.204 426.425 309.847 426.576 308.488C426.892 305.708 427.311 302.924 427.82 300.158C428.422 296.848 429.174 293.547 430.125 290.286C431.183 286.625 432.471 283.036 434.082 279.574C434.218 279.286 434.354 278.998 434.49 278.709C434.565 278.561 434.627 278.428 434.705 278.277C434.957 277.777 435.218 277.283 435.475 276.794C436.013 275.763 436.577 274.727 437.157 273.733C437.497 273.156 437.839 272.606 438.205 272.052C438.504 271.599 438.814 271.148 439.135 270.708C439.271 270.52 439.431 270.312 439.578 270.126C439.676 269.998 439.781 269.869 439.882 269.737C440.067 269.492 440.249 269.243 440.451 268.986C440.729 268.634 441.01 268.285 441.315 267.957C441.577 267.684 441.85 267.422 442.21 267.268C442.335 267.216 442.447 267.193 442.582 267.184C442.641 267.169 442.677 267.173 442.724 267.18C442.732 267.187 442.74 267.194 442.76 267.185C442.764 267.188 442.768 267.191 442.772 267.195C442.776 267.198 442.776 267.198 442.792 267.179C442.796 267.182 442.816 267.167 442.833 267.155C442.905 267.117 442.978 267.087 443.041 267.115C443.131 267.126 443.179 267.201 443.24 267.254C443.335 267.336 443.426 267.415 443.53 267.471C443.587 267.521 443.641 267.567 443.694 267.613C443.732 267.646 443.787 267.667 443.825 267.7C443.846 267.745 443.88 267.774 443.894 267.82C443.904 267.862 443.931 267.885 443.948 267.926C444.063 268.185 444.133 268.459 444.188 268.726C444.278 269.183 444.319 269.651 444.336 270.131C444.365 270.721 444.365 271.306 444.357 271.891C444.355 272.109 444.353 272.327 444.334 272.556C444.337 272.653 444.33 272.746 444.333 272.842C444.42 278.61 444.483 284.398 444.565 290.163C444.561 290.252 444.57 290.327 444.566 290.416C444.574 290.576 444.579 290.74 444.587 290.9C444.595 291.313 444.624 291.71 444.633 292.123C444.707 293.498 444.797 294.879 444.883 296.264C445.392 303.928 446.183 311.582 446.28 319.268C446.312 320.693 446.303 322.149 446.272 323.585C446.2 325.552 446.098 327.485 445.915 329.442C445.581 333.39 444.972 337.347 443.906 341.187C443.754 341.74 443.59 342.283 443.426 342.827C443.347 343.071 443.269 343.316 443.186 343.557C442.382 345.941 441.298 348.217 440.078 350.428C439.681 351.141 439.275 351.848 438.859 352.553C438.614 352.959 438.382 353.351 438.134 353.761C437.752 354.395 437.419 355.072 437.102 355.762C436.669 356.724 436.249 357.732 435.781 358.697C435.254 359.798 434.654 360.868 433.817 361.767C433.579 362.027 433.338 362.251 433.079 362.466C433.005 362.529 432.931 362.584 432.853 362.643C432.809 362.671 432.755 362.711 432.686 362.752C432.642 362.773 432.589 362.787 432.526 362.799C432.454 362.797 432.388 362.773 432.321 362.775C432.242 362.766 432.167 362.768 432.09 362.795C431.969 362.843 431.872 362.886 431.779 362.932C431.693 362.977 431.612 363.033 431.526 363.085C431.485 363.11 431.441 363.138 431.38 363.178C431.363 363.19 431.355 363.183 431.335 363.199C431.335 363.199 431.322 363.222 431.326 363.225C431.313 363.24 431.3 363.262 431.284 363.281C431.242 363.338 431.192 363.388 431.151 363.412L431.134 363.431C431.21 364.089 431.27 364.759 431.326 365.433C435.78 377.226 439.374 389.36 442.105 401.753C446.639 422.268 448.876 443.385 449.043 464.388C449.123 465.049 449.134 465.684 449.119 466.323C449.149 466.535 449.128 466.736 449.048 466.913C449.033 481.074 448.082 495.164 446.283 508.959C447.03 507.61 447.774 506.265 448.55 504.907L448.609 504.492C448.823 503.121 449.195 501.7 449.431 500.281C449.521 499.707 449.596 499.12 449.602 498.567L449.649 492.468C449.984 488.774 450.301 484.938 450.744 481.15C451.029 478.597 451.394 476.045 451.881 473.567C452.366 471.06 453.047 468.695 453.849 466.369C455.026 462.931 456.468 459.602 457.858 456.134C458.627 454.245 459.277 452.347 460.046 450.458C460.378 449.628 460.749 448.791 461.149 447.959L465.538 440.169C466.011 439.207 466.426 438.196 466.802 437.185C467.383 435.598 467.923 433.95 468.504 432.364C469.514 429.719 470.638 427.173 471.499 424.525C471.871 423.41 472.187 422.313 472.415 421.173C472.705 419.715 472.959 418.252 473.332 416.798C473.584 415.806 473.871 414.836 474.251 413.889L475.429 411.05C475.539 410.739 475.645 409.985 475.731 409.847C475.969 409.488 476.253 409.421 476.503 409.424C476.692 409.428 477.091 409.467 477.291 410.012C477.738 411.111 478.04 412.276 478.335 413.436C479.003 416.069 479.426 418.803 479.913 421.432C480.503 424.557 480.922 427.718 481.091 430.891C481.36 435.633 481.073 440.434 480.484 445.152C479.633 451.706 478.053 458.155 475.855 464.349C480.415 457.331 484.813 450.206 488.899 442.905C494.432 433.024 499.493 422.887 503.873 412.262C499.969 410.223 497.321 406.317 499.107 401.722C499.698 399.992 501.276 397.837 503.17 396.362C504.625 395.226 506.281 394.51 507.81 394.489C510.777 394.441 513.595 396.412 515.434 399.093C515.715 399.522 515.968 399.961 516.196 400.404C516.974 401.389 517.559 402.581 517.903 403.876C518.228 405.154 518.425 406.502 518.28 407.747C518.139 408.902 517.612 409.942 516.751 410.907C515.949 411.711 514.991 412.319 513.928 412.703C513.656 412.84 513.386 412.952 513.111 413.054C511.037 413.815 508.55 413.845 506.244 413.188C501.456 427.731 494.793 441.304 487.592 454.538C482.409 464.07 476.803 473.39 470.737 482.497C466.735 488.501 462.487 494.359 458.215 500.222C454.775 504.876 452.379 510.247 449.049 514.989C448.134 516.286 447.23 517.593 446.068 518.644C445.61 519.059 445.162 519.384 444.689 519.693C444.66 519.887 444.615 520.094 444.582 520.285C441.234 539.778 437.07 558.313 429.901 575.778C425.127 587.406 418.996 598.48 411.231 609.204C410.967 609.594 410.412 609.713 410.021 609.435C409.63 609.156 409.516 608.626 409.8 608.213C416.862 597.293 422.136 586.004 426.421 574.418C427.513 571.472 428.586 568.508 429.544 565.539C434.335 550.839 437.493 535.512 439.962 519.529C442.642 502.724 443.992 485.427 443.918 468.023L441.568 462.473C440.8 460.499 439.659 458.734 438.401 457.028C436.355 454.287 433.956 451.746 431.797 449.167C431.411 448.675 431.035 448.163 430.647 447.674C426.266 442.795 421.837 437.934 417.523 432.993C412.503 427.215 407.734 421.254 403.503 414.948C395.373 402.376 388.414 388.856 380.286 376.22C377.069 371.196 373.575 366.399 369.914 361.71C369.443 361.116 368.993 360.507 368.525 359.917C368.209 360.075 367.89 360.205 367.543 360.345C366.019 360.922 364.37 361.145 362.778 360.833C360.103 360.289 357.866 358.514 356.662 356.229C355.411 353.87 355.227 350.997 356.656 348.468C356.997 347.859 358.213 346.576 359.626 345.496C360.176 344.129 361.431 343.632 362.936 343.683C363.607 343.485 364.232 343.407 364.736 343.463C367.099 343.738 370.189 345.818 371.965 348.471C373.368 350.556 373.862 352.946 373.189 355.07C372.954 355.772 372.591 356.362 372.116 356.857C371.894 357.19 371.643 357.504 371.347 357.808C371.235 357.93 371.118 358.049 371.011 358.142C371.307 358.431 371.602 358.713 371.881 359.021C374.54 361.753 376.911 364.741 379.232 367.772C384.51 374.705 389.229 382.085 393.854 389.543C393.299 387.6 392.848 385.653 392.512 383.68C392.102 381.177 391.911 378.645 391.803 375.963C391.756 375.178 391.18 372.784 391.527 371.029C391.76 369.86 392.206 369.029 392.899 368.697C392.969 368.631 393.265 368.481 393.661 368.638C394.073 368.808 395.043 369.394 395.193 369.497L400.696 372.633C402.814 373.906 404.848 375.353 406.786 376.935C409.681 379.286 412.382 381.901 414.927 384.534C421.217 391.158 426.817 398.435 431.548 406.231C435.059 412.001 438.142 418.033 440.604 424.332C440.092 420.963 439.537 417.59 438.906 414.243C436.257 408.654 433.135 403.18 431.445 397.329C430.474 393.682 429.702 389.968 429.153 386.188C428.426 381.422 427.997 376.595 427.42 371.833C419.053 348.806 407.306 327.194 391.799 308.177C387.039 308.729 382.263 309.867 377.432 310.478C375.086 310.784 372.739 310.936 370.394 310.87C368.454 310.815 366.551 310.693 364.652 310.481C360.195 309.958 355.842 308.994 351.562 307.82C346.121 306.321 340.775 304.465 335.47 302.431C331.993 301.107 328.561 299.668 325.074 298.302C321.525 296.883 317.981 295.528 314.452 294.125C312.066 293.185 309.695 292.226 307.35 291.162C306.244 290.672 304.051 289.993 302.497 289.021C301.447 288.359 300.666 287.531 300.283 286.667C299.988 285.946 300.102 285.36 300.322 284.899C300.528 284.484 300.878 284.102 301.452 283.854C301.94 283.651 303.087 283.678 303.679 283.532L306.076 282.99C308.819 282.503 311.671 282.228 314.55 282.098C317.395 281.977 320.251 282.02 323.031 282.182C329.628 282.653 336.051 283.631 342.402 284.979C345.582 285.648 348.733 286.411 351.889 287.238C351.342 286.924 350.794 286.604 350.25 286.286C338.964 279.579 328.425 272.207 318.404 264.167C311.955 258.995 305.691 253.578 299.587 247.893C293.732 242.458 287.968 236.848 282.329 230.947C282.141 231.064 281.942 231.171 281.719 231.291C277.98 233.099 273.881 231.017 271.868 227.753C271.292 226.789 270.896 225.762 270.722 224.733C269.914 221.953 270.785 219.061 274.481 217.495C277.578 216.19 280.747 217.34 282.874 219.519C283.685 220.034 284.356 220.681 284.833 221.406C285.62 222.612 285.936 224.069 285.49 225.646C285.469 226.685 285.212 227.706 284.662 228.634C286.424 230.158 288.132 231.728 289.882 233.242C293.863 236.745 297.84 240.184 301.815 243.594C304.487 245.872 307.136 248.163 309.797 250.431C316.485 256.095 323.243 261.594 330.227 266.855C338.281 272.916 346.667 278.585 355.438 284.048C359.117 286.325 362.792 288.666 366.622 290.86C367.691 291.439 368.774 291.97 369.856 292.473C370.367 292.628 370.878 292.791 371.369 292.97C373.61 293.724 375.811 294.57 377.994 295.46C379.268 295.91 380.566 296.347 381.838 296.822C361.792 274.91 342.312 254.419 324.788 231.981C314.962 219.4 305.76 206.214 297.359 191.878C297.085 191.895 296.811 191.904 296.543 191.891C296.1 191.881 295.66 191.813 295.22 191.745C291.933 191.27 288.588 189.9 285.664 189.081C283.403 188.343 281.169 187.595 278.95 186.893C275.489 185.796 272.048 184.782 268.801 183.284C265.201 181.601 261.806 179.444 258.646 176.584C257.557 175.582 256.487 174.504 255.45 173.388C254.413 172.272 253.43 171.109 252.494 169.961L249.131 165.243L247.613 162.653L246.829 160.791C246.218 158.706 246.697 157.844 247.142 157.237C247.382 156.913 247.533 156.731 247.933 156.484C248.039 156.423 248.161 156.436 248.301 156.397C249.202 156.178 250.55 156.32 251.956 156.385C253.601 156.591 255.177 156.929 256.745 157.347C258.992 157.987 261.178 158.82 263.447 159.565L266.96 160.701C269.235 161.517 271.504 162.515 273.708 163.643C274.098 163.854 274.484 164.068 274.894 164.263C274.41 163.878 273.966 163.46 273.515 163.044C271.094 160.79 268.876 158.34 266.804 155.744C262.142 149.936 258.046 143.467 254.999 135.884C254.615 134.96 254.275 134.007 253.972 133.034C253.183 132.97 252.367 132.829 251.582 132.583C248.855 131.721 246.402 129.813 245.241 127.379C244.826 126.521 244.269 125.327 244.086 124.138C243.999 123.631 243.967 123.13 244.01 122.642C243.918 121.625 243.906 120.37 244.124 119.342C244.35 118.327 244.832 117.5 245.496 116.917C248.184 114.546 251.973 114.364 255.11 115.613C257.657 116.352 259.836 118.178 261.118 120.403C261.82 121.636 262.248 123.003 262.294 124.38C262.303 124.947 262.261 125.503 262.161 126.041C262.331 127.991 261.711 129.823 260.101 131.17C259.217 131.869 258.219 132.376 257.172 132.688C257.348 132.96 257.505 133.256 257.662 133.544C261.093 139.69 264.629 145.176 268.607 150.199C270.989 153.197 273.535 155.991 276.022 158.853C277.693 160.797 279.16 162.877 280.924 164.775C282.253 166.237 283.644 167.659 285.075 169.05C283.337 165.492 281.779 162.063 280.531 158.676C278.422 152.901 277.139 147.308 277.06 141.693C277.034 138.777 277.265 135.864 277.993 132.908C279.219 127.836 281.655 122.72 285.579 117.367C283.551 115.859 282.111 113.31 281.547 111.046C280.822 108.178 283.026 105.222 286.037 105.178C286.12 105.19 286.219 105.183 286.302 105.195C287.08 104.803 287.892 104.541 288.751 104.539C297.095 104.405 298.318 119.504 288.765 118.659C288.675 118.641 288.564 118.638 288.466 118.613ZM476.214 413.996C476.246 416.451 476.327 418.956 476.114 421.479C475.738 426.076 474.919 430.722 474.218 435.031C472.951 442.842 471.133 450.581 468.822 458.2C466.519 465.8 463.72 473.283 460.52 480.512L453.798 495.438C453.266 496.654 452.618 497.903 452.029 499.169C451.704 499.667 451.368 500.187 451.055 500.695C451.073 500.643 451.071 500.615 451.072 500.583C451.201 499.949 451.31 499.292 451.36 498.65L451.606 492.697C452.09 489.038 452.548 485.231 453.151 481.489C453.56 479.009 454.038 476.556 454.615 474.189C455.197 471.832 455.961 469.626 456.821 467.47C458.149 464.135 459.728 460.924 461.262 457.582L464.753 449.799C465.691 447.93 466.813 446.193 467.816 444.38C468.279 443.537 468.707 442.689 469.096 441.816C469.574 440.732 469.991 439.596 470.374 438.438C470.905 436.809 471.355 435.142 471.866 433.529C472.583 431.162 473.405 428.88 474.034 426.531C474.462 424.905 474.812 423.246 474.978 421.554C475.117 420.118 475.236 418.664 475.457 417.232C475.587 416.321 475.776 415.394 476.036 414.501L476.214 413.996ZM477.482 417.121C477.687 418.669 477.828 420.221 478.026 421.729C478.417 424.808 478.59 427.884 478.644 430.983C478.753 435.594 478.544 440.235 477.938 444.82C476.907 452.488 474.878 460.018 471.988 467.137C471.04 469.617 469.924 472.515 468.558 475.318L468.332 475.655C464.723 480.968 461.102 486.277 457.392 491.536L461.983 481.152C465.155 473.838 467.918 466.298 470.192 458.607C472.467 450.923 474.25 443.093 475.473 435.218C476.143 430.876 476.974 426.207 477.283 421.559C477.379 420.079 477.471 418.602 477.482 417.121ZM394.072 372.478C394.115 372.582 394.174 372.66 394.23 372.741C397.234 378.266 400.606 383.643 404.18 388.915C410.114 397.659 416.634 406.064 422.964 414.311C428.708 421.767 434.578 430.023 438.704 438.911C440.309 442.355 441.692 445.885 442.632 449.505C442.585 450.336 442.507 451.173 442.413 451.996C442.395 452.194 442.29 452.416 442.372 452.613C442.615 453.255 442.57 452.784 443.088 453.232C443.036 453.407 443.135 453.585 443.299 453.634C443.334 453.631 443.366 453.625 443.381 453.638C443.411 453.85 443.444 454.065 443.474 454.277C441.722 452.05 439.906 449.981 438.471 448.241C437.145 446.689 435.956 445.196 434.519 443.919C434.319 443.713 434.102 443.525 433.869 443.357C433.377 442.779 432.873 442.216 432.376 441.66L431.614 440.788C429.925 438.795 428.212 436.815 426.499 434.835C420.845 428.236 415.191 421.292 410.386 413.896C408.241 410.639 406.353 407.23 404.565 403.821C402.793 400.387 401.15 396.911 399.882 393.293C398.742 390.312 397.822 387.461 396.999 384.567C396.145 381.687 395.361 378.794 394.807 375.635C394.706 375.082 394.318 373.815 394.072 372.478ZM393.703 370.29C393.659 370.132 393.61 369.997 393.584 369.881L394.592 370.5L399.88 373.922C401.876 375.243 403.766 376.751 405.559 378.368C408.255 380.819 410.751 383.51 413.115 386.206C419.055 392.873 424.298 400.147 428.706 407.91C432.218 414.093 435.153 420.583 437.596 427.279C438.199 428.95 438.802 430.622 439.349 432.313C440.488 435.633 441.561 439.115 442.18 442.636C442.23 442.925 442.289 443.196 442.327 443.482C441.657 441.718 440.911 439.982 440.101 438.257C435.863 429.298 429.93 420.961 424.125 413.414C418.836 406.571 413.44 399.597 408.331 392.438C403.751 385.99 399.427 379.384 395.582 372.6C395.283 372.062 395.069 371.471 394.675 371.011C394.497 370.764 394.281 370.637 394.056 370.442C393.983 370.319 393.839 370.255 393.703 370.29ZM431.833 385.081C433.621 390.99 435.203 396.967 436.588 402.987C436.747 403.75 436.918 404.49 437.093 405.233C435.914 402.405 434.848 399.554 434.161 396.625C433.475 393.943 432.973 391.208 432.451 388.482C432.231 387.36 432.03 386.222 431.833 385.081ZM387.03 302.556C387.865 303.497 388.684 304.458 389.498 305.409C385.381 305.739 381.222 306.38 377.064 306.642C374.929 306.757 372.774 306.796 370.645 306.604C368.819 306.455 367.038 306.192 365.257 305.928C361.014 305.312 356.874 304.439 352.801 303.318C347.498 301.844 342.295 299.992 337.086 298.102C333.602 296.831 330.077 295.592 326.565 294.331C322.967 293.055 319.372 291.874 315.81 290.57C315.113 290.307 314.413 290.047 313.713 289.781C318.043 290.572 322.392 291.281 326.708 292.12C339.696 294.599 352.642 297.327 365.649 299.729C371.894 300.9 378.378 301.239 384.701 302.165C385.476 302.276 386.253 302.416 387.03 302.556ZM383.718 300.656C377.792 299.801 371.757 299.404 365.918 298.28C355.628 296.265 345.356 294.199 335.099 291.993C331.42 291.179 327.727 290.38 324.055 289.512C319.634 288.456 315.27 287.203 310.851 286.129C312.123 286.012 313.418 285.914 314.699 285.871C317.407 285.786 320.136 285.837 322.764 286.029C329.195 286.422 335.451 287.349 341.647 288.597C347.883 289.846 354.061 291.424 360.294 293.17C363.097 293.944 365.92 294.763 368.76 295.602C369.907 296.036 371.077 296.422 372.252 296.786C373.996 297.323 375.738 297.839 377.496 298.328C378.785 298.791 380.072 299.279 381.349 299.765C382.151 300.053 382.929 300.353 383.718 300.656ZM276.355 223.819C276.28 223.906 276.212 224.007 276.183 224.102C276.152 224.015 276.148 223.919 276.19 223.802C276.22 223.728 276.3 223.798 276.355 223.819ZM276.392 223.445C276.435 223.449 276.454 223.465 276.473 223.482C276.489 223.495 276.484 223.524 276.471 223.546C276.429 223.603 276.416 223.525 276.392 223.445ZM441.605 270.136C440.257 272.895 439.018 275.681 437.936 278.517C435.958 283.657 434.42 288.958 433.203 294.318C431.179 303.25 430.195 312.395 430.318 321.62C430.417 328.497 430.766 335.43 430.725 342.339C430.701 345.304 430.604 348.247 430.42 351.167C430.307 352.659 430.238 354.123 430.102 355.595C429.788 353.767 429.408 351.975 429.01 350.167C429.479 340.111 428.666 329.876 429.343 319.879C429.524 316.67 429.83 313.324 430.164 309.908C430.63 305.016 431.229 299.993 432.189 295.091C433.253 289.539 434.708 284.133 436.812 279.254C437.549 277.464 438.27 275.693 439.133 273.979C439.7 272.846 440.306 271.753 441.004 270.708C441.059 270.629 441.307 270.411 441.605 270.136ZM441.9 271.702C441.9 272.041 441.916 272.368 441.909 272.707C441.906 272.918 441.9 273.132 441.898 273.35C441.89 273.529 441.885 273.711 441.881 273.894C441.863 274.53 441.841 275.17 441.823 275.806C441.765 277.904 441.727 279.986 441.74 282.086C441.758 283.904 441.815 285.729 441.88 287.561C441.95 289.119 442.024 290.679 442.13 292.234C442.26 294.182 442.422 296.125 442.609 298.063C443.226 304.795 444.009 311.511 444.235 318.279C444.309 320.025 444.329 321.785 444.307 323.542C444.27 325.845 444.151 328.136 443.878 330.421C443.476 333.878 442.75 337.294 441.689 340.613C441.439 341.394 441.184 342.165 440.88 342.933C440.44 344.049 439.934 345.134 439.369 346.203C438.355 348.159 437.188 350.017 435.958 351.846C434.796 353.582 433.617 355.269 432.448 356.998L432.354 357.137C432.527 355.198 432.547 353.253 432.626 351.3C432.799 347.339 432.772 343.364 432.685 339.365C432.55 333.421 432.237 327.484 432.098 321.577C431.864 312.495 432.75 303.457 434.638 294.628C435.773 289.317 437.327 284.089 439.099 278.964C439.976 276.45 440.897 273.947 441.898 271.481L441.9 271.702ZM293.048 184.326C294.09 186.191 295.135 188.059 296.202 189.886C295.561 189.765 294.923 189.619 294.282 189.437C291.559 188.672 288.856 187.452 286.449 186.62C284.173 185.929 281.909 185.309 279.715 184.562C276.382 183.455 273.212 182.084 270.125 180.538C266.841 178.875 263.682 176.921 260.79 174.235C259.721 173.31 258.667 172.306 257.634 171.293C256.617 170.254 255.617 169.203 254.698 168.128L251.228 163.757L250.353 162.561C250.48 162.645 250.615 162.728 250.733 162.83C252.016 163.661 253.269 164.558 254.623 165.323C258.581 167.629 262.906 169.466 266.79 171.581C273.795 175.272 280.695 179.183 288.014 182.18C289.684 182.88 291.348 183.693 293.048 184.326ZM289.775 178.19C290.306 179.214 290.848 180.241 291.401 181.278C291.486 181.418 291.558 181.574 291.63 181.729C290.923 181.424 290.212 181.122 289.498 180.817C287.173 179.837 284.877 178.816 282.591 177.744C277.533 175.325 272.557 172.704 267.545 170.146C262.954 167.825 257.762 165.923 253.227 163.184C252.451 162.727 251.669 162.27 250.962 161.718C249.974 160.93 249.11 160.023 248.271 159.085C248.23 158.956 248.196 158.834 248.177 158.717C248.126 158.553 248.018 158.394 248.12 158.329C248.25 158.255 248.299 158.577 248.507 158.604C249.256 158.753 250.292 159.117 251.407 159.489C252.496 159.745 253.557 160.071 254.599 160.413C257.161 161.226 259.617 162.232 262.162 163.189L265.684 164.393C267.828 165.097 269.948 165.999 272.039 166.996C274.129 168.025 276.179 169.146 278.123 170.328C279.931 171.453 281.671 172.618 283.402 173.769C285.155 174.972 286.885 176.163 288.61 177.375C288.997 177.643 289.385 177.918 289.775 178.19ZM344.458 175.256C344.949 178.488 345.313 181.728 345.871 184.951C346.029 185.8 346.219 186.649 346.405 187.495C347.886 194.35 349.459 201.13 349.902 207.986C350.046 210.265 350.085 212.566 349.894 214.863C349.711 217.106 349.278 219.345 348.71 221.594C347.41 226.542 344.464 231.125 342.321 235.903C341.368 229.099 340.389 222.24 340.062 215.326C339.665 206.702 339.966 198.056 340.903 189.588C341.104 187.772 341.475 185.912 341.905 184.069C342.618 181.107 343.556 178.153 344.458 175.256ZM338.642 227.367C338.266 225.233 337.962 223.101 337.713 220.957C337.466 218.721 337.253 216.482 337.137 214.233C336.916 209.712 337.05 205.158 337.39 200.657C337.619 197.616 337.923 194.58 338.339 191.607C338.736 188.772 339.313 186.005 340.011 183.275C340.734 180.509 341.569 177.805 342.515 175.072C342.768 174.419 343.039 173.782 343.353 173.15C343.637 172.583 343.936 172.037 344.278 171.488C344.265 171.511 344.273 171.517 344.281 171.524C344.209 171.615 344.141 171.716 344.084 171.82C342.766 174.291 342.272 177.23 341.446 180.001C340.512 183.15 339.75 186.315 339.371 189.414C338.307 197.958 338.004 206.669 338.183 215.384C338.266 219.38 338.388 223.376 338.642 227.367ZM396.522 258.485C396.333 258.542 396.156 258.608 395.994 258.687C396.057 258.615 396.123 258.546 396.201 258.494L396.242 258.463C396.328 258.478 396.428 258.471 396.522 258.485ZM252.135 125.306C252.166 125.332 252.206 125.34 252.208 125.368C252.227 125.385 252.205 125.433 252.196 125.451C252.137 125.527 252.11 125.443 252.135 125.306ZM286.302 105.195C287.922 105.252 289.614 106.064 290.934 107.238C290.31 106.852 289.637 106.522 288.924 106.278L288.7 108.605C287.037 108.005 284.941 108.215 283.664 109.638C282.921 110.458 283.374 112.034 283.711 112.944C283.842 113.277 284.001 113.601 284.214 113.878C284.358 114.096 284.532 114.279 284.696 114.481C285.28 115.052 286.011 115.492 286.807 115.748L286.744 115.82C286.718 115.858 286.672 115.911 286.643 115.952L286.545 116.081C285.886 115.636 285.258 115.093 284.696 114.481C284.515 114.298 284.354 114.092 284.214 113.878C282.948 112.258 282.199 110.3 282.535 108.628C282.866 106.953 284.883 105.897 286.257 105.216C286.277 105.2 286.294 105.188 286.302 105.195ZM290.934 107.238C292.588 108.263 293.854 109.79 294.241 111.874C294.65 113.97 292.138 117.059 289.893 117.14C289.722 117.145 289.537 117.144 289.368 117.124C289.419 117.042 289.47 116.96 289.521 116.878C289.725 116.588 289.804 116.251 289.772 115.918C290.161 115.815 290.523 115.689 290.873 115.499C294.784 113.368 293.603 109.573 290.934 107.238ZM288.7 108.605C290.65 109.327 292.004 111.184 290.665 113.571C288.932 116.682 285.651 112.354 286.328 109.979C286.493 109.404 287.536 109.967 288.123 110.095C288.24 110.137 288.377 110.195 288.537 110.24L288.7 108.605ZM288.537 110.24C289.928 110.785 292.131 112.444 289.841 113.423C289.381 113.617 288.669 113.779 288.188 113.889L288.537 110.24Z" fill="#9E624C"/>
</g>
</g>
<defs>
<clipPath id="clip0_1_1400">
<rect width="482.971" height="482.971" fill="white" transform="matrix(-0.756388 -0.654124 -0.654124 0.756388 681.236 315.923)"/>
</clipPath>
</defs>
</svg>
