<svg width="717" height="170" viewBox="0 0 717 170" fill="none" xmlns="http://www.w3.org/2000/svg">
<g opacity="0.15">
<mask id="mask0_1_1420" style="mask-type:alpha" maskUnits="userSpaceOnUse" x="-429" y="0" width="1146" height="170">
<path d="M58.2827 34.3574L72.9976 19.6425" stroke="white" stroke-width="3" stroke-linecap="round" stroke-linejoin="round"/>
<path d="M59.205 23.3325C60.7335 23.3325 61.9725 22.0935 61.9725 20.565C61.9725 19.0366 60.7335 17.7975 59.205 17.7975C57.6766 17.7975 56.4375 19.0366 56.4375 20.565C56.4375 22.0935 57.6766 23.3325 59.205 23.3325Z" stroke="white" stroke-width="3" stroke-linecap="round" stroke-linejoin="round"/>
<path d="M73.92 36.2025C75.4485 36.2025 76.6876 34.9634 76.6876 33.4349C76.6876 31.9065 75.4485 30.6675 73.92 30.6675C72.3916 30.6675 71.1526 31.9065 71.1526 33.4349C71.1526 34.9634 72.3916 36.2025 73.92 36.2025Z" stroke="white" stroke-width="3" stroke-linecap="round" stroke-linejoin="round"/>
<path d="M66 49.5C78.4264 49.5 88.5 39.4264 88.5 27C88.5 14.5736 78.4264 4.5 66 4.5C53.5736 4.5 43.5 14.5736 43.5 27C43.5 39.4264 53.5736 49.5 66 49.5Z" stroke="white" stroke-width="3" stroke-linecap="round" stroke-linejoin="round"/>
<path d="M222 49.5C234.426 49.5 244.5 39.4264 244.5 27C244.5 14.5736 234.426 4.5 222 4.5C209.574 4.5 199.5 14.5736 199.5 27C199.5 39.4264 209.574 49.5 222 49.5Z" stroke="white" stroke-width="3" stroke-linecap="round" stroke-linejoin="round"/>
<path d="M215.25 33.75L228.75 20.25" stroke="white" stroke-width="3" stroke-linecap="round" stroke-linejoin="round"/>
<path d="M227.613 32.625H227.633" stroke="white" stroke-width="3" stroke-linecap="round" stroke-linejoin="round"/>
<path d="M216.363 21.375H216.383" stroke="white" stroke-width="3" stroke-linecap="round" stroke-linejoin="round"/>
<path d="M359.975 32.986L356.555 29.5659C355.16 28.1709 355.16 25.8759 356.555 24.4809L359.975 21.0609C360.56 20.4759 361.033 19.3284 361.033 18.5184V13.6808C361.033 11.7008 362.653 10.0809 364.633 10.0809H369.47C370.28 10.0809 371.428 9.60842 372.013 9.02342L375.433 5.60338C376.828 4.20838 379.123 4.20838 380.518 5.60338L383.938 9.02342C384.523 9.60842 385.67 10.0809 386.48 10.0809H391.318C393.298 10.0809 394.918 11.7008 394.918 13.6808V18.5184C394.918 19.3284 395.39 20.4759 395.975 21.0609L399.395 24.4809C400.79 25.8759 400.79 28.1709 399.395 29.5659L395.975 32.986C395.39 33.571 394.918 34.7185 394.918 35.5285V40.3658C394.918 42.3458 393.298 43.966 391.318 43.966H386.48C385.67 43.966 384.523 44.4384 383.938 45.0234L380.518 48.4435C379.123 49.8385 376.828 49.8385 375.433 48.4435L372.013 45.0234C371.428 44.4384 370.28 43.966 369.47 43.966H364.633C362.653 43.966 361.033 42.3458 361.033 40.3658V35.5285C361.033 34.696 360.56 33.5485 359.975 32.986Z" stroke="white" stroke-width="3" stroke-linecap="round" stroke-linejoin="round"/>
<path d="M371.25 33.75L384.75 20.25" stroke="white" stroke-width="3" stroke-linecap="round" stroke-linejoin="round"/>
<path d="M383.613 32.625H383.633" stroke="white" stroke-width="3" stroke-linecap="round" stroke-linejoin="round"/>
<path d="M372.363 21.375H372.383" stroke="white" stroke-width="3" stroke-linecap="round" stroke-linejoin="round"/>
<path d="M527.25 4.5H540.75C552 4.5 556.5 9 556.5 20.25V33.75C556.5 45 552 49.5 540.75 49.5H527.25C516 49.5 511.5 45 511.5 33.75V20.25C511.5 9 516 4.5 527.25 4.5Z" stroke="white" stroke-width="3" stroke-linecap="round" stroke-linejoin="round"/>
<path d="M526.283 34.3574L540.998 19.6425" stroke="white" stroke-width="3" stroke-linecap="round" stroke-linejoin="round"/>
<path d="M527.205 23.3325C528.733 23.3325 529.972 22.0935 529.972 20.565C529.972 19.0366 528.733 17.7975 527.205 17.7975C525.677 17.7975 524.438 19.0366 524.438 20.565C524.438 22.0935 525.677 23.3325 527.205 23.3325Z" stroke="white" stroke-width="3" stroke-linecap="round" stroke-linejoin="round"/>
<path d="M541.92 36.2025C543.448 36.2025 544.688 34.9634 544.688 33.4349C544.688 31.9065 543.448 30.6675 541.92 30.6675C540.392 30.6675 539.153 31.9065 539.153 33.4349C539.153 34.9634 540.392 36.2025 541.92 36.2025Z" stroke="white" stroke-width="3" stroke-linecap="round" stroke-linejoin="round"/>
<path d="M682.283 34.3574L696.998 19.6425" stroke="white" stroke-width="3" stroke-linecap="round" stroke-linejoin="round"/>
<path d="M683.205 23.3325C684.733 23.3325 685.972 22.0935 685.972 20.565C685.972 19.0366 684.733 17.7975 683.205 17.7975C681.677 17.7975 680.438 19.0366 680.438 20.565C680.438 22.0935 681.677 23.3325 683.205 23.3325Z" stroke="white" stroke-width="3" stroke-linecap="round" stroke-linejoin="round"/>
<path d="M697.92 36.2025C699.448 36.2025 700.688 34.9634 700.688 33.4349C700.688 31.9065 699.448 30.6675 697.92 30.6675C696.392 30.6675 695.153 31.9065 695.153 33.4349C695.153 34.9634 696.392 36.2025 697.92 36.2025Z" stroke="white" stroke-width="3" stroke-linecap="round" stroke-linejoin="round"/>
<path d="M690 49.5C702.426 49.5 712.5 39.4264 712.5 27C712.5 14.5736 702.426 4.5 690 4.5C677.574 4.5 667.5 14.5736 667.5 27C667.5 39.4264 677.574 49.5 690 49.5Z" stroke="white" stroke-width="3" stroke-linecap="round" stroke-linejoin="round"/>
<path d="M58.2827 150.357L72.9976 135.643" stroke="white" stroke-width="3" stroke-linecap="round" stroke-linejoin="round"/>
<path d="M59.205 139.333C60.7335 139.333 61.9725 138.094 61.9725 136.565C61.9725 135.037 60.7335 133.798 59.205 133.798C57.6766 133.798 56.4375 135.037 56.4375 136.565C56.4375 138.094 57.6766 139.333 59.205 139.333Z" stroke="white" stroke-width="3" stroke-linecap="round" stroke-linejoin="round"/>
<path d="M73.92 152.203C75.4485 152.203 76.6876 150.963 76.6876 149.435C76.6876 147.907 75.4485 146.668 73.92 146.668C72.3916 146.668 71.1526 147.907 71.1526 149.435C71.1526 150.963 72.3916 152.203 73.92 152.203Z" stroke="white" stroke-width="3" stroke-linecap="round" stroke-linejoin="round"/>
<path d="M66 165.5C78.4264 165.5 88.5 155.426 88.5 143C88.5 130.574 78.4264 120.5 66 120.5C53.5736 120.5 43.5 130.574 43.5 143C43.5 155.426 53.5736 165.5 66 165.5Z" stroke="white" stroke-width="3" stroke-linecap="round" stroke-linejoin="round"/>
<path d="M222 165.5C234.426 165.5 244.5 155.426 244.5 143C244.5 130.574 234.426 120.5 222 120.5C209.574 120.5 199.5 130.574 199.5 143C199.5 155.426 209.574 165.5 222 165.5Z" stroke="white" stroke-width="3" stroke-linecap="round" stroke-linejoin="round"/>
<path d="M215.25 149.75L228.75 136.25" stroke="white" stroke-width="3" stroke-linecap="round" stroke-linejoin="round"/>
<path d="M227.613 148.625H227.633" stroke="white" stroke-width="3" stroke-linecap="round" stroke-linejoin="round"/>
<path d="M216.363 137.375H216.383" stroke="white" stroke-width="3" stroke-linecap="round" stroke-linejoin="round"/>
<path d="M359.975 148.986L356.555 145.566C355.16 144.171 355.16 141.876 356.555 140.481L359.975 137.061C360.56 136.476 361.033 135.328 361.033 134.518V129.681C361.033 127.701 362.653 126.081 364.633 126.081H369.47C370.28 126.081 371.428 125.608 372.013 125.023L375.433 121.603C376.828 120.208 379.123 120.208 380.518 121.603L383.938 125.023C384.523 125.608 385.67 126.081 386.48 126.081H391.318C393.298 126.081 394.918 127.701 394.918 129.681V134.518C394.918 135.328 395.39 136.476 395.975 137.061L399.395 140.481C400.79 141.876 400.79 144.171 399.395 145.566L395.975 148.986C395.39 149.571 394.918 150.718 394.918 151.528V156.366C394.918 158.346 393.298 159.966 391.318 159.966H386.48C385.67 159.966 384.523 160.438 383.938 161.023L380.518 164.443C379.123 165.838 376.828 165.838 375.433 164.443L372.013 161.023C371.428 160.438 370.28 159.966 369.47 159.966H364.633C362.653 159.966 361.033 158.346 361.033 156.366V151.528C361.033 150.696 360.56 149.548 359.975 148.986Z" stroke="white" stroke-width="3" stroke-linecap="round" stroke-linejoin="round"/>
<path d="M371.25 149.75L384.75 136.25" stroke="white" stroke-width="3" stroke-linecap="round" stroke-linejoin="round"/>
<path d="M383.613 148.625H383.633" stroke="white" stroke-width="3" stroke-linecap="round" stroke-linejoin="round"/>
<path d="M372.363 137.375H372.383" stroke="white" stroke-width="3" stroke-linecap="round" stroke-linejoin="round"/>
<path d="M527.25 120.5H540.75C552 120.5 556.5 125 556.5 136.25V149.75C556.5 161 552 165.5 540.75 165.5H527.25C516 165.5 511.5 161 511.5 149.75V136.25C511.5 125 516 120.5 527.25 120.5Z" stroke="white" stroke-width="3" stroke-linecap="round" stroke-linejoin="round"/>
<path d="M526.283 150.357L540.998 135.643" stroke="white" stroke-width="3" stroke-linecap="round" stroke-linejoin="round"/>
<path d="M527.205 139.333C528.733 139.333 529.972 138.094 529.972 136.565C529.972 135.037 528.733 133.798 527.205 133.798C525.677 133.798 524.438 135.037 524.438 136.565C524.438 138.094 525.677 139.333 527.205 139.333Z" stroke="white" stroke-width="3" stroke-linecap="round" stroke-linejoin="round"/>
<path d="M541.92 152.203C543.448 152.203 544.688 150.963 544.688 149.435C544.688 147.907 543.448 146.668 541.92 146.668C540.392 146.668 539.153 147.907 539.153 149.435C539.153 150.963 540.392 152.203 541.92 152.203Z" stroke="white" stroke-width="3" stroke-linecap="round" stroke-linejoin="round"/>
<path d="M682.283 150.357L696.998 135.643" stroke="white" stroke-width="3" stroke-linecap="round" stroke-linejoin="round"/>
<path d="M683.205 139.333C684.733 139.333 685.972 138.094 685.972 136.565C685.972 135.037 684.733 133.798 683.205 133.798C681.677 133.798 680.438 135.037 680.438 136.565C680.438 138.094 681.677 139.333 683.205 139.333Z" stroke="white" stroke-width="3" stroke-linecap="round" stroke-linejoin="round"/>
<path d="M697.92 152.203C699.448 152.203 700.688 150.963 700.688 149.435C700.688 147.907 699.448 146.668 697.92 146.668C696.392 146.668 695.153 147.907 695.153 149.435C695.153 150.963 696.392 152.203 697.92 152.203Z" stroke="white" stroke-width="3" stroke-linecap="round" stroke-linejoin="round"/>
<path d="M690 165.5C702.426 165.5 712.5 155.426 712.5 143C712.5 130.574 702.426 120.5 690 120.5C677.574 120.5 667.5 130.574 667.5 143C667.5 155.426 677.574 165.5 690 165.5Z" stroke="white" stroke-width="3" stroke-linecap="round" stroke-linejoin="round"/>
</mask>
<g mask="url(#mask0_1_1420)">
<rect x="-533" y="-52" width="1353" height="396" fill="url(#paint0_linear_1_1420)"/>
</g>
</g>
<defs>
<linearGradient id="paint0_linear_1_1420" x1="-533" y1="146" x2="820" y2="146" gradientUnits="userSpaceOnUse">
<stop stop-color="white" stop-opacity="0"/>
<stop offset="0.27" stop-color="white" stop-opacity="0.05"/>
<stop offset="0.495" stop-color="white"/>
<stop offset="0.78" stop-color="white" stop-opacity="0.05"/>
<stop offset="1" stop-color="white" stop-opacity="0"/>
</linearGradient>
</defs>
</svg>
