<svg width="50" height="50" viewBox="0 0 50 50" fill="none" xmlns="http://www.w3.org/2000/svg">
<path d="M12.5 45.8333V35.9375L16.3542 31.5625L15.0521 22.9166H6.25V6.24996H20.8333V4.16663H29.1667V6.24996H37.4479L33.6458 31.5625L37.5 35.9375V45.8333H12.5ZM14.4271 18.75L13.1771 10.4166H10.4167V18.75H14.4271ZM25 39.5833C25.5903 39.5833 26.0854 39.3833 26.4854 38.9833C26.8854 38.5833 27.0847 38.0889 27.0833 37.5C27.0819 36.9111 26.8819 36.4166 26.4833 36.0166C26.0847 35.6166 25.5903 35.4166 25 35.4166C24.4097 35.4166 23.9153 35.6166 23.5167 36.0166C23.1181 36.4166 22.9181 36.9111 22.9167 37.5C22.9153 38.0889 23.1153 38.584 23.5167 38.9854C23.9181 39.3868 24.4125 39.5861 25 39.5833ZM20.2083 29.1666H29.7917L32.6042 10.4166H17.3958L20.2083 29.1666Z" fill="#28221E"/>
</svg>
