<svg width="50" height="50" viewBox="0 0 50 50" fill="none" xmlns="http://www.w3.org/2000/svg">
<path d="M35.1667 8.33338L39.6458 12.7084L28.125 21.875L26.0417 19.7917L35.1458 8.33338H35.1667ZM35.1667 4.16672C34.551 4.16265 33.9421 4.29506 33.3838 4.55442C32.8254 4.81378 32.3315 5.19366 31.9375 5.66672L20.4167 20.1042L27.7917 27.4792L42.25 15.9792C44.125 14.3959 44.2708 11.5417 42.5208 9.79172L38.125 5.39588C37.2917 4.56255 36.2292 4.16672 35.1667 4.16672ZM18.9583 21.5834L17.4792 23.0625C17.0886 23.46 16.8697 23.9949 16.8697 24.5521C16.8697 25.1094 17.0886 25.6443 17.4792 26.0417L21.875 30.4167C22.3125 30.8334 22.8333 31.0209 23.375 31.0209C23.9167 31.0209 24.4375 30.8334 24.8542 30.4167L26.3125 28.9584L18.9583 21.5834ZM12.5 31.25C11.3542 31.25 10.4167 32.1875 10.4167 33.3334C10.4167 34.4792 11.3542 35.4167 12.5 35.4167C13.6458 35.4167 14.5833 34.4792 14.5833 33.3334C14.5833 32.1875 13.6458 31.25 12.5 31.25ZM18.75 33.3334C17.6042 33.3334 16.6667 34.2709 16.6667 35.4167C16.6667 36.5625 17.6042 37.5 18.75 37.5C19.8958 37.5 20.8333 36.5625 20.8333 35.4167C20.8333 34.2709 19.8958 33.3334 18.75 33.3334ZM8.33333 37.5C7.1875 37.5 6.25 38.4375 6.25 39.5834C6.25 40.7292 7.1875 41.6667 8.33333 41.6667C9.47917 41.6667 10.4167 40.7292 10.4167 39.5834C10.4167 38.4375 9.47917 37.5 8.33333 37.5ZM14.5833 39.5834C13.4375 39.5834 12.5 40.5209 12.5 41.6667C12.5 42.8125 13.4375 43.75 14.5833 43.75C15.7292 43.75 16.6667 42.8125 16.6667 41.6667C16.6667 40.5209 15.7292 39.5834 14.5833 39.5834Z" fill="#28221E"/>
</svg>
