<svg width="50" height="50" viewBox="0 0 50 50" fill="none" xmlns="http://www.w3.org/2000/svg">
<path d="M19.7917 6.25004C10 6.25004 2.08334 11.875 2.08334 18.75C2.08334 21.25 3.125 23.5417 5 25.625C3.125 28.125 2.05209 31.25 2.08334 34.375V41.6667C2.08334 43.9584 3.95834 45.8334 6.25 45.8334H33.3333C35.6458 45.8334 37.5 43.9792 37.5 41.6667V34.375C37.5 31.875 36.875 29.375 35.4167 27.0834L39.5833 22.9167L33.3333 16.6667L28.9583 21.0417C25.9654 19.4122 22.5919 18.611 19.1859 18.7209C15.7799 18.8307 12.465 19.8477 9.58334 21.6667C8.79167 20.8959 8.33334 19.8542 8.33334 18.75C8.33334 15 13.5417 11.875 19.7917 11.875C22.7083 11.875 25.625 12.7084 27.7083 13.9584L31.875 9.79171C28.306 7.39929 24.0874 6.1628 19.7917 6.25004ZM19.7917 22.9167C27.0833 22.9167 33.3333 29.1667 33.3333 34.375V41.6667H6.25V34.375C6.25 29.1667 12.5 22.9167 19.7917 22.9167ZM47.9167 15.2084C47.9167 18.6042 45.6458 22.0834 42.4583 22.8542L41.0625 21.4375L39.5833 20H41.1458C43.2292 20 44.7917 17.125 44.7917 15C44.7917 12.875 43.0208 10.7084 40.9375 10.7084V7.58337C44.7917 7.58337 47.9167 11.3542 47.9167 15.2084ZM36.7708 14.0209C35.4792 12.75 34.6875 11 34.6875 9.06254C34.6875 5.20837 37.8125 2.08337 41.6667 2.08337V5.20837C39.5833 5.20837 37.8125 6.93754 37.8125 9.06254C37.8125 11.1875 39.5833 12.9167 41.6667 12.9167V16.0417C39.9583 16.0417 38.375 16.5625 37.0625 17.4584L34.8333 15.2292C35.4167 14.7709 36.0833 14.3542 36.7708 14.0209Z" fill="#28221E"/>
</svg>
