<svg width="50" height="50" viewBox="0 0 50 50" fill="none" xmlns="http://www.w3.org/2000/svg">
<path d="M41.9101 8.08982C38.4492 4.63083 33.3984 3.24802 27.6972 4.19919C22.2793 5.10154 16.8652 8.03122 12.4472 12.4472C8.02927 16.8633 5.10154 22.2793 4.19919 27.6972C3.24802 33.4023 4.63083 38.4492 8.08982 41.9101C10.8359 44.6562 14.584 46.0937 18.8672 46.0937C20.0184 46.0905 21.1675 45.9925 22.3027 45.8008C27.7207 44.8984 33.1347 41.9687 37.5527 37.5527C41.9707 33.1367 44.8984 27.7207 45.8008 22.3027C46.7519 16.6015 45.3691 11.5508 41.9101 8.08982ZM8.82224 28.4668C9.56443 24.0058 12.0293 19.4941 15.7617 15.7715C19.4941 12.0488 24.0058 9.57029 28.4668 8.82224C29.3392 8.67324 30.2224 8.59681 31.1074 8.59372C32.3131 8.58503 33.5135 8.75417 34.6699 9.09568C33.0753 9.81089 31.574 10.718 30.1992 11.7969C26.2929 14.8769 23.7773 19.164 22.7031 24.541C20.9551 33.2773 14.832 36.4746 10.5801 37.6445C8.83786 35.3183 8.21482 32.1113 8.82224 28.4668ZM41.1777 21.5332C40.4355 25.9941 37.9707 30.5058 34.2383 34.2383C30.5058 37.9707 25.9941 40.4297 21.5332 41.1777C19.2578 41.5566 17.1582 41.4531 15.332 40.9004C16.9255 40.1871 18.4257 39.2813 19.7988 38.2031C23.7051 35.123 26.2226 30.8359 27.2968 25.459C29.0547 16.7226 35.1679 13.5254 39.4199 12.3554C41.1621 14.6816 41.7851 17.8886 41.1777 21.5332Z" fill="#28221E"/>
</svg>
