<svg width="50" height="50" viewBox="0 0 50 50" fill="none" xmlns="http://www.w3.org/2000/svg">
<path d="M32.2916 4.16663C33.3663 4.16651 34.4278 4.40396 35.4 4.86197C36.3722 5.31998 37.2311 5.98723 37.9153 6.81597C38.5995 7.64471 39.0921 8.61445 39.3578 9.65579C39.6234 10.6971 39.6556 11.7843 39.4521 12.8395L39.4208 12.977C41.2333 13.5816 42.8179 14.7254 43.9625 16.2552C45.1072 17.785 45.7574 19.6279 45.826 21.5373C45.8947 23.4467 45.3785 25.3315 44.3467 26.9396C43.3148 28.5476 41.8164 29.8022 40.0521 30.5354L37.7896 44.0916C37.7087 44.5781 37.4579 45.0201 37.0817 45.339C36.7056 45.6579 36.2285 45.8331 35.7354 45.8333H14.2646C13.7714 45.8331 13.2944 45.6579 12.9182 45.339C12.5421 45.0201 12.2913 44.5781 12.2104 44.0916L10.0666 31.2375C8.62482 31.1557 7.25581 30.5771 6.19232 29.6001C5.12883 28.6231 4.43649 27.308 4.23298 25.8783C4.02947 24.4485 4.32735 22.9924 5.07599 21.7575C5.82463 20.5226 6.97782 19.585 8.33956 19.1041L8.33331 18.75C8.3329 16.6405 8.86634 14.5652 9.88396 12.7174C10.9016 10.8697 12.3703 9.30947 14.1532 8.18216C15.9362 7.05485 17.9755 6.3971 20.0812 6.27017C22.1868 6.14324 24.2903 6.55125 26.1958 7.45621C26.8589 6.44493 27.7634 5.61467 28.8276 5.04036C29.8919 4.46606 31.0823 4.16578 32.2916 4.16663ZM18.75 31.25H14.2916L16.0291 41.6666H18.75V31.25ZM27.0833 31.25H22.9166V41.6666H27.0833V31.25ZM35.7062 31.25H31.25V41.6666H33.9687L35.7062 31.25ZM20.8333 10.4166C16.3708 10.4166 12.7271 13.925 12.5104 18.2645L12.5 18.675L12.5062 19.0291C12.521 19.8472 12.2945 20.6515 11.8551 21.3417C11.4157 22.0319 10.7828 22.5775 10.0354 22.9104L9.72289 23.0333C9.2603 23.198 8.87067 23.5207 8.62262 23.9445C8.37458 24.3683 8.28404 24.866 8.36694 25.35C8.44985 25.834 8.70089 26.2732 9.07584 26.5903C9.45079 26.9073 9.9256 27.0819 10.4166 27.0833H36.4583C37.2284 27.0833 37.9888 26.9125 38.685 26.5833C39.3811 26.2541 39.9956 25.7746 40.4841 25.1794C40.9727 24.5842 41.3232 23.888 41.5104 23.1411C41.6976 22.3941 41.7168 21.6149 41.5667 20.8597C41.4166 20.1044 41.1008 19.3918 40.6422 18.7732C40.1836 18.1546 39.5936 17.6454 38.9145 17.2822C38.2355 16.919 37.4844 16.711 36.7153 16.673C35.9461 16.635 35.1782 16.768 34.4666 17.0625L34.1021 17.2312C33.1407 17.7266 32.0245 17.8288 30.9892 17.5162C29.9539 17.2036 29.0807 16.5008 28.5541 15.5562L28.4083 15.2708C27.7425 13.8217 26.6749 12.5941 25.3322 11.7336C23.9895 10.8732 22.4281 10.4161 20.8333 10.4166ZM32.2916 8.33329C31.7516 8.33318 31.2207 8.47303 30.7508 8.7392C30.2809 9.00538 29.888 9.38879 29.6104 9.85204C30.6861 10.9112 31.5614 12.1562 32.1937 13.527C33.1366 13.0426 34.1555 12.7233 35.2062 12.5833C35.3889 12.1099 35.4535 11.5992 35.3946 11.0953C35.3357 10.5913 35.1549 10.1093 34.8679 9.6909C34.581 9.27246 34.1965 8.93019 33.7476 8.69366C33.2987 8.45712 32.799 8.33344 32.2916 8.33329Z" fill="#28221E"/>
</svg>
