<svg width="276" height="60" viewBox="0 0 276 60" fill="none" xmlns="http://www.w3.org/2000/svg">
<path d="M14.2969 43.418C11.7188 43.418 9.33594 42.7734 7.14844 41.4844C4.96094 40.1953 3.22266 38.457 1.93359 36.2695C0.644531 34.082 0 31.6992 0 29.1211C0 26.543 0.644531 24.1602 1.93359 21.9727C3.22266 19.7852 4.96094 18.0566 7.14844 16.7871C9.33594 15.498 11.7188 14.8535 14.2969 14.8535H28.5645V29.1211C28.5645 31.6992 27.9199 34.0918 26.6309 36.2988C25.3613 38.4863 23.6328 40.2246 21.4453 41.5137C19.2578 42.7832 16.875 43.418 14.2969 43.418ZM14.2969 32.8125C15.3125 32.8125 16.1719 32.4512 16.875 31.7285C17.5977 31.0059 17.959 30.1367 17.959 29.1211V25.4297H14.2969C13.6328 25.4297 13.0176 25.5957 12.4512 25.9277C11.8848 26.2598 11.4355 26.709 11.1035 27.2754C10.7715 27.8418 10.6055 28.457 10.6055 29.1211C10.6055 30.1367 10.9668 31.0059 11.6895 31.7285C12.4121 32.4512 13.2812 32.8125 14.2969 32.8125ZM32.2852 43.418C30.5664 43.418 28.9355 43.125 27.3926 42.5391C25.8691 41.9531 24.4922 41.123 23.2617 40.0488L20.127 34.9512L22.7344 29.2383L28.5645 29.0918C28.5645 30.127 28.9258 31.0059 29.6484 31.7285C30.3711 32.4512 31.25 32.8125 32.2852 32.8125L34.1309 38.1445L32.2852 43.418ZM30.3809 38.1445L32.2852 32.8125H36.123L35.8887 31.9629C35.7324 31.4551 35.6055 30.9863 35.5078 30.5566C35.4102 30.1074 35.3613 29.6289 35.3613 29.1211C35.3613 26.543 36.0059 24.1602 37.2949 21.9727C38.584 19.7852 40.332 18.0566 42.5391 16.7871C44.7461 15.498 47.1387 14.8535 49.7168 14.8535H63.9844V43.418H32.2852L30.3809 38.1445ZM53.3789 32.8125V25.459H49.7168C49.0527 25.459 48.4375 25.625 47.8711 25.957C47.3047 26.2891 46.8457 26.7383 46.4941 27.3047C46.1621 27.8516 45.9961 28.457 45.9961 29.1211C45.9961 29.7852 46.1621 30.4004 46.4941 30.9668C46.8457 31.5332 47.3047 31.9824 47.8711 32.3145C48.4375 32.6465 49.0527 32.8125 49.7168 32.8125H53.3789ZM47.4023 0.644531H55.6641V8.73047H47.4023V0.644531ZM83.7891 43.418C81.2109 43.418 78.8281 42.7734 76.6406 41.4844C74.4531 40.1953 72.7148 38.457 71.4258 36.2695C70.1367 34.082 69.4922 31.6992 69.4922 29.1211V2.63672L80.0684 0V29.1211C80.0684 30.1367 80.4297 31.0059 81.1523 31.7285C81.875 32.4512 82.7539 32.8125 83.7891 32.8125L85.6641 38.1445L83.7891 43.418ZM81.8848 38.1445L83.7891 32.8125H126.797C127.461 32.8125 128.076 32.6465 128.643 32.3145C129.209 31.9824 129.658 31.5332 129.99 30.9668C130.322 30.4004 130.488 29.7852 130.488 29.1211C130.488 28.457 130.322 27.8516 129.99 27.3047C129.658 26.7383 129.209 26.2891 128.643 25.957C128.076 25.625 127.461 25.459 126.797 25.459H86.7773V14.8535L112.852 0.0878906L118.154 8.05664L106.23 14.8535H126.797C129.375 14.8535 131.758 15.498 133.945 16.7871C136.152 18.0566 137.9 19.7852 139.189 21.9727C140.479 24.1602 141.123 26.543 141.123 29.1211C141.123 31.6992 140.479 34.082 139.189 36.2695C137.9 38.457 136.152 40.1953 133.945 41.4844C131.758 42.7734 129.375 43.418 126.797 43.418H83.7891L81.8848 38.1445ZM167.109 43.418C164.531 43.418 162.148 42.7734 159.961 41.4844C157.773 40.1953 156.035 38.457 154.746 36.2695C153.457 34.082 152.812 31.6992 152.812 29.1211V17.666L163.418 15.0293V29.1211C163.418 30.1367 163.779 31.0059 164.502 31.7285C165.225 32.4512 166.094 32.8125 167.109 32.8125H210.176C210.84 32.8125 211.455 32.6465 212.021 32.3145C212.588 31.9824 213.037 31.5332 213.369 30.9668C213.701 30.4004 213.867 29.7852 213.867 29.1211C213.867 28.457 213.701 27.8516 213.369 27.3047C213.037 26.7383 212.588 26.2891 212.021 25.957C211.455 25.625 210.84 25.459 210.176 25.459H170.156V14.8535L196.23 0.0878906L201.562 8.05664L189.551 14.8535H210.176C212.754 14.8535 215.137 15.498 217.324 16.7871C219.531 18.0566 221.279 19.7852 222.568 21.9727C223.857 24.1602 224.502 26.543 224.502 29.1211C224.502 31.6992 223.857 34.082 222.568 36.2695C221.279 38.457 219.531 40.1953 217.324 41.4844C215.137 42.7734 212.754 43.418 210.176 43.418H167.109ZM228.164 43.418C226.465 43.418 224.844 43.125 223.301 42.5391C221.777 41.9531 220.4 41.123 219.17 40.0488L216.094 34.9805L218.672 29.2676L224.502 29.1211C224.502 30.1367 224.854 31.0059 225.557 31.7285C226.279 32.4512 227.148 32.8125 228.164 32.8125L230.039 38.1445L228.164 43.418ZM227.93 43.418L226.26 38.1445L228.047 32.8125H228.164C229.18 32.8125 230.039 32.4609 230.742 31.7578C231.445 31.0352 231.797 30.1562 231.797 29.1211V17.666L242.461 15.0293V29.1211C242.461 31.6992 241.816 34.082 240.527 36.2695C239.238 38.457 237.5 40.1953 235.312 41.4844C233.125 42.7734 230.742 43.418 228.164 43.418H227.93ZM237.949 57.4512H221.016V49.3945H237.949V57.4512ZM242.314 50.7422L248.32 46.7285V17.7246L258.955 15.0293V52.3828L248.203 59.5898L242.314 50.7422ZM265.312 2.63672L275.918 0V43.418H265.312V2.63672Z" fill="white"/>
</svg>
