<svg width="176" height="41" viewBox="0 0 176 41" fill="none" xmlns="http://www.w3.org/2000/svg">
<path fill-rule="evenodd" clip-rule="evenodd" d="M6.90203 4.55435C17.3819 4.50758 23.0079 9.37514 23.4896 19.4527C23.4954 19.5791 23.6818 19.586 23.6997 19.4607C24.1674 16.1684 24.0765 13.1676 23.2366 10.5594C20.4644 1.95024 9.89016 0.820828 2.38684 3.54562C2.01289 3.68131 1.93764 4.16114 2.24849 4.40885C8.10087 9.06449 7.30435 21.7721 21.5492 16.2648C19.3246 9.38553 14.7631 5.1231 6.90203 4.55435Z" fill="#23A04E"/>
<path d="M28.9291 31.1152C27.4913 31.1152 26.1624 30.7558 24.9424 30.0369C23.7225 29.318 22.7531 28.3486 22.0342 27.1286C21.3153 25.9087 20.9558 24.5798 20.9558 23.142C20.9558 21.7042 21.3153 20.3753 22.0342 19.1553C22.7531 17.9354 23.7225 16.9714 24.9424 16.2634C26.1624 15.5445 27.4913 15.1851 28.9291 15.1851H36.886V23.142C36.886 24.5798 36.5265 25.9141 35.8076 27.1449C35.0996 28.3649 34.1356 29.3343 32.9157 30.0532C31.6957 30.7612 30.3669 31.1152 28.9291 31.1152ZM28.9291 25.2006C29.4955 25.2006 29.9747 24.9991 30.3669 24.5961C30.7699 24.1931 30.9714 23.7084 30.9714 23.142V21.0833H28.9291C28.5587 21.0833 28.2156 21.1759 27.8997 21.3611C27.5839 21.5462 27.3333 21.7968 27.1482 22.1126C26.963 22.4285 26.8704 22.7716 26.8704 23.142C26.8704 23.7084 27.0719 24.1931 27.4749 24.5961C27.8779 24.9991 28.3627 25.2006 28.9291 25.2006ZM38.961 31.1152C38.0025 31.1152 37.0929 30.9518 36.2324 30.6251C35.3828 30.2983 34.6149 29.8354 33.9287 29.2363L32.1805 26.3934L33.6346 23.2073L36.886 23.1256C36.886 23.7029 37.0875 24.1931 37.4905 24.5961C37.8935 24.9991 38.3837 25.2006 38.961 25.2006L39.9903 28.1743L38.961 31.1152ZM37.899 28.1743L38.961 25.2006H41.1014L40.9706 24.7268C40.8835 24.4436 40.8127 24.1822 40.7582 23.9426C40.7038 23.692 40.6766 23.4252 40.6766 23.142C40.6766 21.7042 41.036 20.3753 41.7549 19.1553C42.4738 17.9354 43.4487 16.9714 44.6795 16.2634C45.9104 15.5445 47.2447 15.1851 48.6825 15.1851H56.6394V31.1152H38.961L37.899 28.1743ZM50.7248 25.2006V21.0996H48.6825C48.3121 21.0996 47.969 21.1922 47.6531 21.3774C47.3373 21.5626 47.0813 21.8131 46.8852 22.129C46.7001 22.434 46.6075 22.7716 46.6075 23.142C46.6075 23.5123 46.7001 23.8554 46.8852 24.1713C47.0813 24.4872 47.3373 24.7377 47.6531 24.9229C47.969 25.1081 48.3121 25.2006 48.6825 25.2006H50.7248ZM47.3917 7.26082H51.9992V11.7703H47.3917V7.26082ZM67.6843 31.1152C66.2465 31.1152 64.9176 30.7558 63.6977 30.0369C62.4777 29.318 61.5083 28.3486 60.7894 27.1286C60.0705 25.9087 59.7111 24.5798 59.7111 23.142V8.37185L65.6093 6.90137V23.142C65.6093 23.7084 65.8108 24.1931 66.2138 24.5961C66.6169 24.9991 67.107 25.2006 67.6843 25.2006L68.73 28.1743L67.6843 31.1152ZM66.6223 28.1743L67.6843 25.2006H91.6695C92.0398 25.2006 92.3829 25.1081 92.6988 24.9229C93.0147 24.7377 93.2652 24.4872 93.4504 24.1713C93.6355 23.8554 93.7281 23.5123 93.7281 23.142C93.7281 22.7716 93.6355 22.434 93.4504 22.129C93.2652 21.8131 93.0147 21.5626 92.6988 21.3774C92.3829 21.1922 92.0398 21.0996 91.6695 21.0996H69.3509V15.1851L83.8923 6.95038L86.8496 11.3945L80.1997 15.1851H91.6695C93.1073 15.1851 94.4361 15.5445 95.6561 16.2634C96.8869 16.9714 97.8618 17.9354 98.5807 19.1553C99.2996 20.3753 99.659 21.7042 99.659 23.142C99.659 24.5798 99.2996 25.9087 98.5807 27.1286C97.8618 28.3486 96.8869 29.318 95.6561 30.0369C94.4361 30.7558 93.1073 31.1152 91.6695 31.1152H67.6843L66.6223 28.1743ZM114.151 31.1152C112.714 31.1152 111.385 30.7558 110.165 30.0369C108.945 29.318 107.975 28.3486 107.257 27.1286C106.538 25.9087 106.178 24.5798 106.178 23.142V16.7536L112.093 15.2831V23.142C112.093 23.7084 112.294 24.1931 112.697 24.5961C113.1 24.9991 113.585 25.2006 114.151 25.2006H138.169C138.54 25.2006 138.883 25.1081 139.199 24.9229C139.514 24.7377 139.765 24.4872 139.95 24.1713C140.135 23.8554 140.228 23.5123 140.228 23.142C140.228 22.7716 140.135 22.434 139.95 22.129C139.765 21.8131 139.514 21.5626 139.199 21.3774C138.883 21.1922 138.54 21.0996 138.169 21.0996H115.851V15.1851L130.392 6.95038L133.366 11.3945L126.667 15.1851H138.169C139.607 15.1851 140.936 15.5445 142.156 16.2634C143.387 16.9714 144.362 17.9354 145.08 19.1553C145.799 20.3753 146.159 21.7042 146.159 23.142C146.159 24.5798 145.799 25.9087 145.08 27.1286C144.362 28.3486 143.387 29.318 142.156 30.0369C140.936 30.7558 139.607 31.1152 138.169 31.1152H114.151ZM148.201 31.1152C147.254 31.1152 146.349 30.9518 145.489 30.6251C144.639 30.2983 143.871 29.8354 143.185 29.2363L141.47 26.4097L142.907 23.2237L146.159 23.142C146.159 23.7084 146.355 24.1931 146.747 24.5961C147.15 24.9991 147.635 25.2006 148.201 25.2006L149.247 28.1743L148.201 31.1152ZM148.07 31.1152L147.139 28.1743L148.136 25.2006H148.201C148.768 25.2006 149.247 25.0046 149.639 24.6125C150.031 24.2094 150.227 23.7193 150.227 23.142V16.7536L156.174 15.2831V23.142C156.174 24.5798 155.815 25.9087 155.096 27.1286C154.377 28.3486 153.408 29.318 152.188 30.0369C150.968 30.7558 149.639 31.1152 148.201 31.1152H148.07ZM153.658 38.9414H144.215V34.4483H153.658V38.9414ZM156.093 35.1999L159.442 32.9615V16.7862L165.373 15.2831V36.1149L159.377 40.1342L156.093 35.1999ZM168.919 8.37185L174.833 6.90137V31.1152H168.919V8.37185Z" fill="white"/>
</svg>
