<svg width="62" height="62" viewBox="0 0 62 62" fill="none" xmlns="http://www.w3.org/2000/svg">
<path d="M17.2486 46.1294C14.6545 47.3066 11.8867 48.0558 9.05298 48.3478C8.86588 48.3673 8.67715 48.3318 8.50986 48.2458C8.34256 48.1598 8.20392 48.0269 8.11087 47.8635C6.01111 44.1628 5.32087 39.5588 6.17337 34.5068C7.26079 27.9871 10.7967 21.4602 16.1321 16.1248C21.4675 10.7894 27.9993 7.25345 34.5142 6.16603C40.0336 5.24814 45.0178 6.16603 48.8735 8.73322C49.0312 8.83684 49.1553 8.98429 49.2304 9.15747C49.3055 9.33064 49.3284 9.52199 49.2962 9.70799C49.2641 9.89399 49.1783 10.0665 49.0494 10.2045C48.9205 10.3424 48.7541 10.4396 48.5707 10.4842C46.7557 10.9169 44.9862 11.5218 43.2862 12.2909C38.0138 14.6886 31.2737 19.8133 29.1134 30.6245C27.6336 37.958 23.6448 43.1747 17.2486 46.1294ZM53.8891 14.1388C53.7963 13.9758 53.658 13.8432 53.4912 13.7572C53.3244 13.6712 53.1362 13.6355 52.9495 13.6545C50.1146 13.9445 47.3457 14.6938 44.7514 15.8729C38.3552 18.8276 34.3664 24.0443 32.8988 31.3729C30.736 42.1842 23.9984 47.3088 18.726 49.7065C17.026 50.4756 15.2564 51.0806 13.4414 51.5132C13.2539 51.5555 13.0832 51.6527 12.951 51.7923C12.8189 51.9319 12.7313 52.1077 12.6993 52.2973C12.6674 52.4868 12.6926 52.6816 12.7717 52.8568C12.8508 53.032 12.9802 53.1798 13.1435 53.2812C16.0183 55.1993 19.5179 56.1874 23.4002 56.1874C24.7733 56.1834 26.1439 56.0668 27.498 55.8387C34.0152 54.7513 40.5446 51.2153 45.88 45.8799C51.2154 40.5445 54.7513 34.0127 55.8388 27.4979C56.6719 22.4459 55.9889 17.8395 53.8891 14.1388Z" fill="#9E624C"/>
</svg>
