<svg width="42" height="42" viewBox="0 0 42 42" fill="none" xmlns="http://www.w3.org/2000/svg">
<path d="M9.53241 33.6131C7.36922 34.5947 5.06126 35.2194 2.69825 35.4629C2.54223 35.4791 2.38486 35.4496 2.24535 35.3779C2.10584 35.3061 1.99024 35.1953 1.91265 35.059C0.161696 31.9732 -0.413876 28.1342 0.297006 23.9215C1.20378 18.4851 4.15233 13.0426 8.6014 8.59363C13.0505 4.1447 18.4972 1.19625 23.9298 0.289497C28.5323 -0.475889 32.6886 0.289497 35.9037 2.43015C36.0353 2.51656 36.1387 2.63952 36.2014 2.78392C36.264 2.92832 36.2831 3.08787 36.2563 3.24297C36.2295 3.39807 36.1579 3.54196 36.0504 3.65695C35.9429 3.77194 35.8042 3.85303 35.6513 3.89024C34.1378 4.25099 32.6622 4.75546 31.2446 5.39678C26.848 7.39607 21.2276 11.6693 19.4262 20.6843C18.1922 26.7993 14.866 31.1493 9.53241 33.6131ZM40.0862 6.93765C40.0087 6.80166 39.8935 6.6911 39.7544 6.6194C39.6152 6.5477 39.4583 6.51794 39.3026 6.53375C36.9387 6.77562 34.6298 7.4004 32.4664 8.38361C27.1328 10.8474 23.8066 15.1974 22.5827 21.3083C20.7793 30.3233 15.1609 34.5966 10.7643 36.5959C9.34676 37.2372 7.87118 37.7416 6.35768 38.1024C6.2013 38.1377 6.05895 38.2187 5.94876 38.3351C5.83856 38.4515 5.76549 38.5981 5.73886 38.7562C5.71222 38.9142 5.73322 39.0767 5.79919 39.2228C5.86515 39.3689 5.97309 39.492 6.10927 39.5766C8.50648 41.176 11.4247 42 14.6621 42C15.8071 41.9966 16.95 41.8994 18.0792 41.7092C23.5138 40.8024 28.9585 37.854 33.4075 33.4051C37.8566 28.9561 40.8052 23.5096 41.7119 18.0771C42.4067 13.8645 41.8371 10.0234 40.0862 6.93765Z" fill="#9E624C"/>
</svg>
